<?xml version="1.0" encoding="UTF-8"?><svg xmlns="http://www.w3.org/2000/svg" xmlns:xlink="http://www.w3.org/1999/xlink" contentScriptType="text/ecmascript" fill="#000000" width="348" zoomAndPan="magnify" contentStyleType="text/css" viewBox="0.0 -4.8 348.0 480.8" height="480.8" preserveAspectRatio="xMidYMid meet" version="1"><defs><clipPath id="a"><path d="M 0 175 L 347.980469 175 L 347.980469 476 L 0 476 Z M 0 175"/></clipPath></defs><g><g id="change1_1"><path fill="#000000" d="M 274.367188 91.796875 C 273.753906 94.941406 276.304688 98.109375 280.054688 98.847656 C 283.796875 99.578125 287.367188 97.609375 287.984375 94.464844 L 288.074219 94.011719 L 274.460938 91.316406 Z M 273.410156 88.003906 C 273.089844 88.222656 272.847656 88.5625 272.765625 88.972656 C 272.691406 89.363281 272.773438 89.746094 272.972656 90.0625 L 289.902344 93.414062 C 290.21875 93.195312 290.453125 92.859375 290.535156 92.457031 C 290.613281 92.0625 290.523438 91.671875 290.320312 91.351562 Z M 274.089844 84.96875 C 273.722656 85.179688 273.441406 85.539062 273.351562 85.984375 C 273.273438 86.375 273.359375 86.757812 273.554688 87.074219 L 290.488281 90.425781 C 290.804688 90.207031 291.039062 89.871094 291.121094 89.46875 C 291.203125 89.039062 291.09375 88.617188 290.851562 88.285156 Z M 296.910156 64.1875 C 297.640625 63.351562 297.714844 62.5 297.128906 61.65625 C 296.769531 61.136719 296.359375 60.878906 295.882812 60.878906 C 295.769531 60.878906 295.652344 60.890625 295.53125 60.921875 C 294.222656 61.234375 292.671875 63.035156 291.191406 66.382812 C 293.429688 66.375 295.796875 65.460938 296.910156 64.1875 Z M 308.449219 38.167969 C 305.046875 33.054688 299.867188 29.589844 293.867188 28.414062 C 287.867188 27.234375 281.765625 28.488281 276.683594 31.9375 C 271.597656 35.386719 268.144531 40.625 266.953125 46.679688 C 265.679688 53.179688 267.238281 59.921875 271.230469 65.175781 L 271.292969 65.28125 C 272.84375 68.925781 274.5625 75.707031 274.941406 77.246094 L 275.019531 77.261719 L 275.039062 77.65625 C 275.09375 79.691406 276.578125 81.453125 278.566406 81.84375 L 279.746094 82.074219 C 280.609375 78.632812 281.984375 72.082031 282.46875 66.507812 C 280.859375 66.554688 279.601562 65.839844 278.683594 64.421875 C 277.148438 62.039062 277.132812 57.988281 278.652344 56.386719 C 279.09375 55.921875 280.058594 55.269531 281.53125 56.117188 C 283.410156 57.203125 283.816406 60.96875 283.566406 65.332031 C 283.691406 65.296875 283.824219 65.253906 283.957031 65.207031 C 284.695312 64.949219 285.382812 64.660156 286.011719 64.347656 C 285.351562 62.242188 285.949219 59.410156 286.886719 57.519531 C 288.007812 55.261719 289.558594 54.265625 290.933594 54.929688 C 292.074219 55.480469 292.6875 56.589844 292.605469 57.96875 C 292.488281 60.035156 290.773438 62.78125 287.289062 64.789062 C 287.539062 65.203125 287.882812 65.542969 288.328125 65.769531 C 288.871094 66.046875 289.484375 66.226562 290.125 66.3125 C 291.882812 62.265625 293.761719 60.316406 295.296875 59.949219 C 296.335938 59.699219 297.273438 60.105469 297.953125 61.089844 C 298.792969 62.304688 298.6875 63.671875 297.660156 64.84375 C 296.3125 66.382812 293.417969 67.488281 290.773438 67.371094 C 289.273438 71.097656 287.882812 76.449219 286.933594 83.484375 L 287.855469 83.664062 C 289.84375 84.058594 291.886719 82.984375 292.703125 81.121094 L 292.855469 80.773438 L 292.941406 80.785156 C 293.863281 79.523438 298.027344 73.871094 300.847656 71.078125 L 300.941406 71.003906 C 306.625 67.644531 310.613281 61.992188 311.890625 55.492188 C 313.074219 49.4375 311.855469 43.28125 308.449219 38.167969 Z M 286.90625 63.863281 C 289.988281 62.0625 291.507812 59.6875 291.609375 57.914062 C 291.648438 57.226562 291.484375 56.308594 290.496094 55.828125 C 290.355469 55.761719 290.214844 55.730469 290.070312 55.730469 C 289.210938 55.730469 288.328125 56.863281 287.78125 57.964844 C 286.9375 59.667969 286.429688 62.101562 286.90625 63.863281 Z M 281.03125 56.984375 C 280.714844 56.800781 280.429688 56.710938 280.171875 56.710938 C 279.871094 56.710938 279.609375 56.832031 279.378906 57.074219 C 278.273438 58.238281 278.144531 61.746094 279.523438 63.878906 C 280.066406 64.71875 280.980469 65.570312 282.546875 65.503906 C 282.832031 61.316406 282.539062 57.855469 281.03125 56.984375 Z M 280.730469 82.269531 L 285.953125 83.292969 C 286.910156 76.203125 288.265625 70.964844 289.730469 67.261719 C 289.074219 67.148438 288.445312 66.953125 287.871094 66.660156 C 287.222656 66.328125 286.746094 65.847656 286.40625 65.261719 C 285.753906 65.585938 285.046875 65.886719 284.289062 66.152344 C 284.019531 66.246094 283.753906 66.320312 283.492188 66.378906 C 282.96875 73.0625 281.117188 80.707031 280.730469 82.269531 Z M 312.867188 55.6875 C 311.542969 62.441406 307.402344 68.324219 301.507812 71.832031 C 298.515625 74.816406 293.839844 81.253906 293.585938 81.601562 C 292.882812 83.132812 291.503906 84.199219 289.929688 84.582031 L 290.503906 84.695312 C 291.328125 84.855469 291.867188 85.660156 291.707031 86.480469 C 291.632812 86.855469 291.421875 87.164062 291.144531 87.382812 L 274.101562 84.007812 C 273.9375 83.710938 273.867188 83.355469 273.9375 82.996094 C 274.101562 82.175781 274.902344 81.636719 275.726562 81.796875 L 276.3125 81.910156 C 274.996094 80.964844 274.113281 79.457031 274.039062 77.769531 C 273.941406 77.359375 272.039062 69.625 270.398438 65.730469 C 266.261719 60.253906 264.648438 53.246094 265.976562 46.488281 C 267.214844 40.171875 270.816406 34.710938 276.121094 31.109375 C 281.425781 27.511719 287.792969 26.203125 294.0625 27.433594 C 300.324219 28.660156 305.730469 32.277344 309.28125 37.613281 C 312.835938 42.949219 314.109375 49.367188 312.867188 55.6875 Z M 261.945312 62.527344 L 253.785156 67.871094 L 254.335938 68.710938 L 262.496094 63.363281 Z M 261.019531 77.957031 L 261.757812 78.632812 L 268.359375 71.453125 L 267.621094 70.777344 Z M 259.171875 53.941406 L 249.453125 54.796875 L 249.542969 55.792969 L 259.261719 54.9375 Z M 315.261719 66.160156 L 323.921875 70.652344 L 324.382812 69.765625 L 315.722656 65.273438 Z M 309.535156 72.59375 L 315.046875 80.644531 L 315.871094 80.082031 L 310.363281 72.027344 Z M 301.035156 77.839844 L 304.40625 86.996094 L 305.34375 86.652344 L 301.972656 77.496094 Z M 259.660156 44.324219 L 250.144531 42.183594 L 249.925781 43.160156 L 259.441406 45.296875 Z M 269.410156 28.695312 L 263.902344 20.644531 L 263.074219 21.207031 L 268.585938 29.261719 Z M 277.914062 23.449219 L 274.542969 14.292969 L 273.605469 14.636719 L 276.976562 23.792969 Z M 286.667969 21.390625 L 285.972656 11.65625 L 284.972656 11.730469 L 285.667969 21.460938 Z M 319.484375 56.242188 L 319.3125 57.226562 L 328.929688 58.875 L 329.101562 57.890625 Z M 263.210938 35.253906 L 254.550781 30.757812 L 254.089844 31.648438 L 262.75 36.140625 Z M 319.351562 47.203125 L 329.070312 46.347656 L 328.980469 45.351562 L 319.261719 46.207031 Z M 316.972656 38.914062 L 325.132812 33.566406 L 324.582031 32.730469 L 316.421875 38.078125 Z M 317.898438 23.484375 L 317.164062 22.804688 L 310.558594 29.988281 L 311.296875 30.664062 Z M 308.496094 16.464844 L 307.601562 16.019531 L 303.25 24.75 L 304.144531 25.195312 Z M 295.632812 22 L 294.652344 21.808594 L 296.546875 12.234375 L 297.527344 12.429688 L 295.632812 22"/></g><g id="change1_2"><path fill="#000000" d="M 198.554688 225.28125 L 198.941406 225.597656 C 212.328125 209.285156 208.972656 174.480469 208.9375 174.128906 L 208.4375 174.179688 C 208.472656 174.527344 211.808594 209.128906 198.554688 225.28125 Z M 204.394531 172.449219 L 203.894531 172.457031 C 203.898438 172.800781 204.160156 207.214844 188.46875 214.84375 L 188.6875 215.292969 C 204.660156 207.523438 204.398438 172.800781 204.394531 172.449219 Z M 165.257812 232.070312 L 165.328125 231.578125 C 144.308594 228.667969 131.320312 185.359375 131.191406 184.921875 L 130.710938 185.0625 C 130.839844 185.503906 143.921875 229.117188 165.257812 232.070312 Z M 170.003906 218.152344 C 171.121094 218.152344 172.246094 218.066406 173.367188 217.886719 L 173.289062 217.394531 C 149.113281 221.203125 135.089844 182.359375 134.949219 181.96875 L 134.480469 182.132812 C 134.515625 182.234375 138.054688 192.140625 144.570312 201.445312 C 152.273438 212.441406 161.003906 218.152344 170.003906 218.152344 Z M 215.886719 199.808594 L 215.390625 199.851562 L 226.195312 327.519531 L 226.691406 327.476562 Z M 206.929688 234.054688 L 215.882812 343.226562 L 207.671875 356.707031 L 196.316406 222.683594 L 195.816406 222.726562 L 207.304688 358.273438 L 216.351562 343.414062 L 216.394531 343.347656 L 207.425781 234.011719 Z M 167.746094 228.054688 L 178.414062 366.007812 L 178.910156 365.96875 L 168.246094 228.015625 Z M 158.933594 242.546875 L 167.695312 362.699219 L 158.042969 352.277344 L 146.976562 229.664062 L 146.480469 229.710938 L 157.550781 352.40625 L 157.558594 352.492188 L 168.296875 364.085938 L 159.433594 242.511719 Z M 134.964844 209.027344 L 145.113281 322.65625 L 144.617188 322.699219 L 134.464844 209.070312 L 134.964844 209.027344"/></g><g id="change1_3"><path fill="#000000" d="M 195.3125 364.003906 C 195.3125 365.175781 194.359375 366.128906 193.183594 366.128906 C 192.007812 366.128906 191.054688 365.175781 191.054688 364.003906 C 191.054688 362.828125 192.007812 361.875 193.183594 361.875 C 194.359375 361.875 195.3125 362.828125 195.3125 364.003906 Z M 193.394531 339.726562 C 193.394531 340.898438 192.441406 341.855469 191.269531 341.855469 C 190.09375 341.855469 189.140625 340.898438 189.140625 339.726562 C 189.140625 338.550781 190.09375 337.597656 191.269531 337.597656 C 192.441406 337.597656 193.394531 338.550781 193.394531 339.726562 Z M 191.460938 315.449219 C 191.460938 316.625 190.507812 317.574219 189.332031 317.574219 C 188.15625 317.574219 187.203125 316.625 187.203125 315.449219 C 187.203125 314.273438 188.15625 313.320312 189.332031 313.320312 C 190.507812 313.320312 191.460938 314.273438 191.460938 315.449219 Z M 189.523438 291.171875 C 189.523438 292.347656 188.570312 293.300781 187.394531 293.300781 C 186.222656 293.300781 185.269531 292.347656 185.269531 291.171875 C 185.269531 289.996094 186.222656 289.046875 187.394531 289.046875 C 188.570312 289.046875 189.523438 289.996094 189.523438 291.171875 Z M 187.4375 266.894531 C 187.4375 268.070312 186.484375 269.023438 185.3125 269.023438 C 184.136719 269.023438 183.183594 268.070312 183.183594 266.894531 C 183.183594 265.722656 184.136719 264.769531 185.3125 264.769531 C 186.484375 264.769531 187.4375 265.722656 187.4375 266.894531 Z M 185.566406 242.617188 C 185.566406 243.792969 184.613281 244.746094 183.4375 244.746094 C 182.261719 244.746094 181.3125 243.792969 181.3125 242.617188 C 181.3125 241.445312 182.261719 240.492188 183.4375 240.492188 C 184.613281 240.492188 185.566406 241.445312 185.566406 242.617188 Z M 197.871094 376.601562 L 190.921875 378.519531 L 177.609375 207.839844 L 183.472656 207.839844 L 183.59375 209.269531 L 183.191406 208.859375 L 182.476562 209.5625 L 183.726562 210.835938 Z M 213.578125 173.984375 L 212.636719 174.324219 C 219.523438 193.414062 210.085938 228.78125 208.441406 234.609375 L 184.691406 210.390625 L 184.390625 206.839844 L 176.527344 206.839844 L 176.945312 212.183594 L 176.636719 212 L 159.050781 241.769531 C 132.382812 219.425781 128.804688 186.347656 128.773438 186.015625 L 127.777344 186.113281 C 127.808594 186.453125 131.460938 220.296875 158.863281 242.914062 L 159.316406 243.285156 L 177.03125 213.300781 L 189.972656 379.203125 L 190.019531 379.804688 L 198.941406 377.34375 L 184.824219 211.957031 L 208.921875 236.527344 L 209.164062 235.714844 C 209.285156 235.308594 221.171875 195.035156 213.578125 173.984375"/></g><g id="change2_1" clip-path="url(#a)"><path fill="#6482f4" d="M 128.855469 475.207031 C 120.242188 474.535156 112.101562 473.492188 104.554688 472.273438 C 58.089844 464.78125 2.230469 421.429688 0.0859375 395.203125 C -2.054688 368.976562 35.769531 261.574219 35.769531 261.574219 C 35.769531 261.574219 33.273438 216.613281 35.769531 215.546875 C 38.265625 214.476562 56.820312 215.546875 56.820312 215.546875 C 57.582031 215.464844 58.402344 215.335938 59.246094 215.191406 C 58.894531 217.546875 55.097656 245.152344 62.960938 292.324219 C 66.59375 314.113281 73.160156 342.367188 84.894531 375.964844 C 61.070312 355.09375 41.730469 352.820312 41.53125 352.800781 L 41.421875 353.84375 C 41.621094 353.863281 61.378906 356.171875 85.585938 377.96875 L 85.59375 377.960938 C 95.757812 406.734375 109.710938 439.371094 128.855469 475.207031 Z M 311.679688 251.648438 C 296.640625 251.648438 284.449219 243.761719 284.449219 234.03125 C 284.449219 224.300781 296.640625 216.414062 311.679688 216.414062 C 326.714844 216.414062 338.90625 224.300781 338.90625 234.03125 C 338.90625 243.761719 326.714844 251.648438 311.679688 251.648438 Z M 265.707031 249.9375 C 265.449219 250.882812 239.363281 344.722656 199.113281 381.5 L 198.40625 380.726562 C 237.136719 345.335938 262.742188 256.59375 264.59375 250.035156 L 240.21875 234.964844 L 255.210938 222.613281 L 225.886719 182.671875 L 226.730469 182.050781 L 256.640625 222.792969 L 242.015625 234.84375 L 265.8125 249.558594 Z M 323.097656 212.257812 C 301.953125 207.339844 304.835938 181.09375 304.835938 181.09375 L 275.191406 184.589844 C 275.191406 184.589844 238.03125 179.433594 215.171875 175.644531 C 222.214844 196.457031 232.398438 237.707031 224.460938 286.550781 C 212.976562 357.199219 192.109375 375.757812 192.109375 375.757812 C 192.109375 375.757812 162.082031 352.5625 141.03125 297.257812 C 126.496094 259.078125 126.246094 212.714844 127.488281 187.65625 C 108.03125 197.269531 76.484375 211.988281 59.785156 215.097656 L 60.308594 215.183594 C 60.261719 215.460938 55.835938 243.253906 64.007812 292.21875 C 70.8125 333.003906 87.867188 396.417969 130.089844 475.304688 C 151.722656 476.890625 176.242188 476.070312 201.683594 469.621094 L 194.441406 385.773438 C 151.292969 370.867188 98.636719 273.511719 98.105469 272.527344 L 97.941406 272.222656 L 113.734375 252.566406 L 97.90625 247.644531 L 114.128906 197.542969 L 115.125 197.863281 L 99.230469 246.957031 L 115.515625 252.027344 L 99.195312 272.335938 C 102.496094 278.398438 153.480469 370.898438 195.097656 384.894531 L 195.425781 385.003906 L 202.710938 469.355469 C 228.839844 462.582031 255.90625 449.832031 281.777344 427.632812 C 273.085938 421.371094 265.757812 412.902344 261.160156 403.097656 C 252.40625 384.421875 268.78125 287.167969 275.773438 245.636719 C 277.394531 236.011719 278.464844 229.652344 278.597656 227.992188 C 279.328125 218.820312 292.253906 214.765625 292.804688 214.597656 L 293.109375 215.597656 C 292.980469 215.640625 280.316406 219.617188 279.640625 228.074219 C 279.503906 229.78125 278.429688 236.160156 276.804688 245.8125 C 269.828125 287.242188 253.496094 384.273438 262.109375 402.652344 C 266.722656 412.492188 274.121094 420.960938 282.890625 427.148438 C 288.226562 425.851562 322.027344 416.007812 334.335938 372.1875 C 347.714844 324.554688 347.984375 231.957031 347.984375 231.957031 C 347.984375 231.957031 344.238281 217.175781 323.097656 212.257812"/></g><g id="change3_1"><path fill="#ffffff" d="M 213.308594 431.644531 C 209.527344 431.644531 206.464844 434.710938 206.464844 438.488281 C 206.464844 442.269531 209.527344 445.332031 213.308594 445.332031 C 217.089844 445.332031 220.152344 442.269531 220.152344 438.488281 C 220.152344 434.710938 217.089844 431.644531 213.308594 431.644531 Z M 334.613281 275.125 C 331.085938 276.488281 328 280.964844 327.71875 285.125 C 327.4375 289.285156 330.066406 291.554688 333.59375 290.191406 C 337.117188 288.832031 340.203125 284.355469 340.484375 280.191406 C 340.769531 276.03125 338.140625 273.761719 334.613281 275.125 Z M 337.40625 254.5625 C 333.882812 255.925781 330.792969 260.402344 330.511719 264.5625 C 330.230469 268.726562 332.859375 270.992188 336.386719 269.632812 C 339.910156 268.269531 342.996094 263.789062 343.28125 259.628906 C 343.5625 255.46875 340.933594 253.199219 337.40625 254.5625 Z M 216.136719 394.644531 C 216.136719 398.425781 213.074219 401.488281 209.292969 401.488281 C 205.515625 401.488281 202.449219 398.425781 202.449219 394.644531 C 202.449219 390.863281 205.515625 387.800781 209.292969 387.800781 C 213.074219 387.800781 216.136719 390.863281 216.136719 394.644531"/></g><g id="change4_1"><path fill="#f4caac" d="M 218.277344 138.832031 C 213.289062 157.917969 210.78125 164.878906 200.082031 169.878906 L 200.1875 174.699219 C 200.1875 174.699219 197.050781 209.296875 182.0625 211.804688 C 167.074219 214.296875 149.769531 206.804688 141.027344 183.605469 C 132.285156 160.410156 126.929688 145.96875 126.929688 145.96875 L 119.089844 140.078125 C 119.089844 140.078125 107.488281 144.542969 95.894531 130.625 C 87.675781 120.761719 86.085938 111.085938 91.578125 105.582031 C 93.832031 103.320312 97.277344 101.757812 101.964844 101.179688 C 101.964844 101.179688 105.78125 96.625 111.746094 90.660156 C 115.859375 86.542969 122.300781 84.113281 123.902344 72.460938 C 127.832031 43.921875 129.078125 43.375 131.574219 42.484375 C 131.574219 42.484375 132.644531 26.972656 149.949219 33.386719 C 167.253906 39.8125 205.246094 46.949219 186.894531 31.257812 C 187.472656 31.59375 205.855469 42.601562 209.714844 61.046875 C 209.945312 62.148438 210.164062 63.226562 210.386719 64.285156 C 213.832031 81.265625 215.425781 92.953125 218.277344 98.328125 C 221.316406 104.042969 223.277344 119.742188 218.277344 138.832031"/></g><g id="change1_4"><path fill="#000000" d="M 208.6875 135.476562 C 207.398438 141.996094 204.273438 149.09375 197.316406 154.082031 C 180.898438 165.863281 152.359375 138.472656 157.621094 138.914062 C 162.882812 139.363281 175.636719 138.117188 188.867188 134.007812 C 197.179688 131.429688 202.921875 126.117188 206.035156 122.511719 C 207.890625 120.371094 208.820312 118.84375 208.820312 118.84375 C 208.820312 118.84375 210.445312 126.628906 208.6875 135.476562"/></g><g id="change3_2"><path fill="#ffffff" d="M 206.546875 129.933594 C 207.0625 126.789062 206.539062 124.136719 206.035156 122.511719 C 202.921875 126.117188 197.179688 131.429688 188.867188 134.007812 C 175.636719 138.117188 162.882812 139.363281 157.621094 138.914062 C 152.359375 138.472656 180.898438 165.863281 197.316406 154.082031 C 204.273438 149.09375 207.398438 141.996094 208.6875 135.476562 C 208.003906 129.105469 206.546875 129.933594 206.546875 129.933594 Z M 166.988281 103.394531 C 166.988281 103.394531 157.558594 92.910156 145.078125 95.585938 C 132.601562 98.265625 135.8125 116.90625 151.332031 115.613281 C 166.855469 114.320312 166.988281 103.394531 166.988281 103.394531 Z M 191.429688 96.011719 C 191.429688 96.011719 190.226562 80.890625 199.324219 76.609375 C 208.425781 72.328125 212.839844 82.632812 210.699219 89.453125 C 208.558594 96.277344 201.066406 102.96875 191.429688 96.011719"/></g><g id="change1_5"><path fill="#000000" d="M 207.394531 129.480469 L 206.980469 129.203125 C 206.839844 129.410156 192.769531 150.027344 168.019531 145.007812 L 167.921875 145.496094 C 170.640625 146.046875 173.230469 146.292969 175.691406 146.292969 C 195.917969 146.292969 207.269531 129.667969 207.394531 129.480469 Z M 190.839844 172.910156 C 197.695312 172.238281 200.277344 170.351562 200.382812 170.273438 L 199.785156 169.472656 C 199.761719 169.488281 197.273438 171.273438 190.742188 171.917969 C 184.058594 172.574219 151.859375 164.035156 148.210938 162.074219 C 144.335938 159.988281 133.683594 149.550781 133.574219 149.445312 L 132.875 150.15625 C 133.316406 150.59375 143.738281 160.804688 147.738281 162.953125 C 151.652344 165.058594 181.546875 172.949219 189.941406 172.949219 C 190.273438 172.949219 190.574219 172.9375 190.839844 172.910156 Z M 189.167969 115.976562 L 188.5625 115.183594 L 182.296875 119.964844 L 182.902344 120.761719 Z M 199.421875 107.21875 L 199.394531 106.765625 L 198.9375 106.75 C 195.296875 106.648438 188.128906 98.125 185.675781 94.851562 L 184.875 95.449219 C 185.234375 95.929688 193.496094 106.886719 198.4375 107.703125 C 198.464844 109.414062 198.328125 115.933594 194.847656 120.039062 L 195.605469 120.6875 C 199.886719 115.640625 199.441406 107.5625 199.421875 107.21875 Z M 113.089844 118.519531 C 104.445312 110.691406 96.609375 111.789062 96.28125 111.839844 L 96.433594 112.828125 C 96.507812 112.820312 104.125 111.75 112.417969 119.261719 Z M 146.472656 94.050781 C 134.785156 96.902344 137.015625 106.714844 137.015625 106.714844 C 137.015625 106.714844 140.085938 96.496094 148.078125 95.652344 C 149.65625 95.488281 151.347656 95.691406 153.046875 96.121094 C 151.398438 97.367188 149.351562 100.042969 150.308594 105.414062 C 151.824219 113.941406 162.640625 115.457031 161.738281 99.890625 C 164.832031 101.699219 166.988281 103.394531 166.988281 103.394531 C 166.988281 103.394531 158.15625 91.195312 146.472656 94.050781 Z M 208.625 78.855469 C 209.246094 80.863281 209.417969 83.386719 209.003906 86.199219 C 207.84375 94.050781 199.726562 95.386719 198.300781 86.199219 C 197.507812 81.105469 198.636719 78.046875 199.796875 76.328125 C 199.640625 76.414062 199.484375 76.503906 199.324219 76.609375 C 192.769531 80.910156 191.378906 94.851562 191.378906 94.851562 C 191.378906 94.851562 187.863281 81.917969 198.03125 75.046875 C 208.199219 68.179688 210.628906 81.820312 210.628906 81.820312 C 210.628906 81.820312 209.898438 80.367188 208.625 78.855469"/></g><g id="change5_1"><path fill="#000000" d="M 116.28125 109.105469 C 120.402344 111.96875 123.191406 114.566406 123.191406 114.566406 L 120.824219 106.257812 Z M 216.808594 37.101562 C 214.554688 30.21875 208.25 27.164062 199.5 28.726562 C 186.609375 31.027344 175.578125 27.355469 164.917969 23.808594 C 156.972656 21.160156 149.46875 18.660156 141.394531 18.550781 C 136.261719 18.472656 132.585938 19.980469 130.457031 23.023438 C 126.921875 28.070312 128.667969 35.871094 129.664062 39.210938 C 126.710938 36.777344 120.066406 29.816406 124.871094 19.285156 C 130.921875 6.027344 161.308594 11.105469 161.613281 11.160156 L 161.792969 10.128906 C 160.507812 9.902344 130.300781 4.859375 123.917969 18.851562 C 118.804688 30.0625 125.902344 37.46875 129.042969 40.046875 C 125.398438 38.609375 121.984375 38.742188 118.898438 40.46875 C 109.078125 45.953125 105.8125 65.394531 105.679688 66.222656 L 106.714844 66.390625 C 106.746094 66.191406 110.027344 46.621094 119.410156 41.382812 C 121.78125 40.054688 124.382812 39.78125 127.152344 40.527344 C 119.65625 42.539062 117.902344 51.308594 116.0625 60.53125 C 114.597656 67.871094 113.078125 75.460938 108.730469 80.828125 C 106.054688 84.136719 103.078125 85.757812 99.832031 85.636719 C 92.644531 85.382812 86.480469 76.664062 86.421875 76.578125 L 85.5625 77.175781 C 85.824219 77.554688 92.082031 86.40625 99.792969 86.6875 C 99.914062 86.691406 100.039062 86.691406 100.160156 86.691406 C 103.59375 86.691406 106.75 84.941406 109.546875 81.488281 C 114.058594 75.921875 115.597656 68.199219 117.089844 60.734375 C 119.179688 50.261719 120.992188 41.214844 130.542969 41.144531 L 131.722656 41.871094 L 131.199219 40.503906 C 131.148438 39.71875 130.800781 31.089844 139.976562 27.453125 C 149.46875 23.695312 167.003906 38.648438 167.179688 38.800781 L 167.863281 38.007812 C 167.125 37.371094 149.667969 22.480469 139.589844 26.480469 C 132.878906 29.140625 130.917969 34.4375 130.359375 37.75 C 129.441406 34.160156 128.421875 27.761719 131.316406 23.621094 C 133.234375 20.886719 136.589844 19.527344 141.378906 19.597656 C 149.289062 19.707031 156.71875 22.183594 164.585938 24.800781 C 175.375 28.394531 186.535156 32.105469 199.6875 29.757812 C 210.882812 27.757812 214.59375 33.707031 215.8125 37.429688 C 218.222656 44.800781 214.914062 54.507812 209.003906 57.40625 L 209.464844 58.347656 C 215.796875 55.242188 219.363281 44.917969 216.808594 37.101562 Z M 123.632812 7.339844 C 112.8125 10.140625 106.375 14.253906 104.488281 19.578125 C 103.027344 23.707031 104.816406 27.476562 105.769531 29.0625 C 105.265625 20.726562 112.613281 13.113281 123.632812 7.339844 Z M 222.5625 51.046875 C 221.054688 58.226562 215.183594 62.191406 210.386719 64.285156 C 210.164062 63.226562 209.945312 62.148438 209.714844 61.046875 C 208.53125 55.402344 205.988281 50.457031 203.015625 46.296875 C 199.460938 46.597656 194.769531 47.664062 188.710938 50.222656 C 171.046875 57.671875 154.097656 47.285156 146.960938 39.835938 C 140.589844 33.183594 134.195312 34.449219 132.898438 42.183594 C 133.671875 39.957031 134.730469 38.636719 136.152344 38.125 C 139.796875 36.816406 145.453125 40.742188 155.992188 49.472656 C 170.730469 61.679688 187.5625 54.046875 187.730469 53.96875 L 188.171875 54.917969 C 188.074219 54.960938 182.621094 57.4375 175.179688 57.4375 C 169.257812 57.4375 162.078125 55.871094 155.324219 50.28125 C 145.3125 41.984375 139.652344 37.984375 136.507812 39.113281 C 134.921875 39.679688 133.859375 41.65625 133.15625 45.324219 L 132.640625 45.226562 L 132.570312 45.210938 C 132.121094 45.152344 129.636719 45.289062 126.675781 54.355469 C 125.90625 58.585938 125.011719 64.410156 123.902344 72.460938 C 122.640625 81.648438 119.914062 87.882812 116.804688 92.132812 L 116.804688 92.144531 C 116.804688 92.144531 108.660156 102.292969 103.265625 101.976562 C 103.265625 101.976562 100.421875 101.824219 99.039062 101.714844 C 95.816406 102.492188 93.332031 103.820312 91.578125 105.585938 C 79.660156 100.613281 60.351562 66.632812 75.371094 59.789062 C 91.429688 52.484375 105.882812 30.179688 105.882812 30.179688 L 105.472656 30.503906 C 105.304688 30.285156 101.390625 25.1875 103.5 19.226562 C 105.636719 13.191406 113.070312 8.667969 125.589844 5.785156 L 125.707031 6.296875 C 129.84375 4.296875 134.417969 2.542969 139.246094 1.09375 C 158.867188 -4.785156 181.171875 14.835938 190.449219 18.585938 C 199.726562 22.328125 211.683594 15.191406 218.8125 19.65625 C 225.949219 24.109375 225.234375 38.386719 222.5625 51.046875 Z M 104.585938 102.921875 C 106.53125 103.582031 109.980469 104.980469 109.980469 104.980469 L 118.609375 99.085938 L 116.988281 92.777344 C 115.738281 94.429688 109.8125 101.945312 104.585938 102.921875 Z M 115.53125 108.335938 L 120.398438 105.289062 L 119.058594 100.050781 L 110.792969 105.695312 C 112.589844 106.675781 115.53125 108.335938 115.53125 108.335938 Z M 207.105469 60.710938 C 206.570312 59.90625 197.828125 54.109375 196.402344 54.371094 C 194.976562 54.644531 191.675781 54.820312 183.738281 64.90625 C 183.738281 64.90625 182.304688 73.824219 183.738281 73.824219 C 185.164062 73.824219 194.171875 62.671875 196.140625 62.671875 C 197.753906 62.671875 202.671875 65.199219 205.019531 66.101562 C 205.53125 66.300781 205.917969 66.414062 206.128906 66.414062 C 206.421875 66.414062 206.664062 66.089844 206.851562 65.597656 C 207.40625 64.160156 207.503906 61.300781 207.105469 60.710938 Z M 161.703125 73.90625 C 161.703125 73.90625 159.652344 66.011719 156.707031 66.011719 C 153.765625 66.011719 143.058594 76.046875 139.179688 77.785156 C 135.300781 79.527344 133.558594 92.402344 134.496094 93.859375 C 135.433594 95.316406 148.101562 78.320312 161.703125 73.90625 Z M 196.402344 54.371094 C 194.976562 54.644531 191.675781 54.820312 183.738281 64.90625 C 183.738281 64.90625 182.304688 73.824219 183.738281 73.824219 C 185.164062 73.824219 194.171875 62.671875 196.140625 62.671875 C 197.753906 62.671875 202.671875 65.199219 205.019531 66.101562 C 205.523438 65.972656 206.140625 65.804688 206.851562 65.597656 C 207.40625 64.160156 207.503906 61.300781 207.105469 60.710938 C 206.570312 59.90625 197.828125 54.109375 196.402344 54.371094 Z M 206.804688 119.109375 C 208.875 117.59375 211.09375 115.664062 212.703125 114.203125 C 213.183594 113.765625 213.882812 114.363281 213.554688 114.925781 C 210.910156 119.445312 205.453125 129.074219 191.007812 135.09375 C 176.464844 141.144531 159.925781 140.273438 152.390625 138.886719 C 151.753906 138.769531 151.792969 137.820312 152.4375 137.757812 C 157.460938 137.277344 166.144531 136 171.898438 132.722656 C 179.75 128.25 190.699219 127.394531 192.359375 127.289062 C 192.503906 127.277344 192.632812 127.210938 192.730469 127.101562 C 200.316406 118.65625 202.972656 121.910156 206.804688 119.109375"/></g><g id="change4_2"><path fill="#f4caac" d="M 326.574219 155.289062 C 326.976562 158.632812 336.878906 176.429688 339.285156 179.507812 C 341.695312 182.585938 344.371094 190.878906 338.351562 200.78125 C 332.328125 210.683594 326.175781 238.382812 326.175781 238.382812 C 306.503906 246.6875 294.058594 231.691406 294.058594 231.691406 L 292.1875 223.394531 C 292.1875 223.394531 278.671875 207.472656 277.199219 204.660156 C 275.730469 201.851562 267.699219 165.589844 277.199219 164.253906 C 286.699219 162.914062 302.222656 149.800781 302.222656 149.800781 C 302.222656 149.800781 311.320312 118.089844 313.195312 112.46875 C 315.066406 106.851562 317.476562 97.886719 324.300781 94.273438 C 331.125 90.660156 335.808594 93.335938 333.667969 97.617188 C 331.523438 101.898438 317.207031 149.800781 317.207031 149.800781 C 324.835938 147.257812 326.175781 151.941406 326.574219 155.289062"/></g><g id="change1_6"><path fill="#000000" d="M 322.480469 192.796875 C 321.75 193.5 320.652344 194.359375 319.378906 195.355469 C 314.023438 199.542969 305.066406 206.550781 305.066406 216.839844 C 305.066406 229.34375 310.464844 235.015625 310.695312 235.25 L 311.410156 234.554688 C 311.359375 234.5 306.066406 228.902344 306.066406 216.839844 C 306.066406 207.039062 314.785156 200.21875 319.992188 196.144531 C 321.289062 195.132812 322.40625 194.253906 323.175781 193.515625 C 326.863281 189.953125 335.984375 189.90625 336.074219 189.90625 L 336.074219 188.90625 C 335.683594 188.90625 326.460938 188.953125 322.480469 192.796875 Z M 299.050781 167.632812 C 297.664062 169.117188 295.480469 171.046875 292.582031 172.445312 C 292.75 173.925781 293.25 179.511719 291.828125 183.777344 C 293.335938 185.214844 301.253906 193.226562 302.71875 204.328125 L 301.726562 204.460938 C 300.164062 192.605469 291.011719 184.378906 290.917969 184.296875 L 290.664062 184.070312 L 290.777344 183.753906 C 292.148438 179.957031 291.800781 174.710938 291.621094 172.878906 C 289.824219 173.625 287.792969 174.15625 285.519531 174.253906 L 285.476562 173.253906 C 294.613281 172.867188 299.949219 164.96875 300 164.890625 L 300.007812 164.894531 C 300.511719 163.859375 301.128906 163.089844 301.871094 162.730469 C 302.21875 162.5625 302.628906 162.3125 303.089844 162 C 305.179688 159.777344 306.09375 157.601562 305.800781 155.519531 C 305.335938 152.25 302.003906 150.253906 301.96875 150.230469 L 302.476562 149.371094 C 302.628906 149.460938 306.253906 151.621094 306.789062 155.375 C 306.996094 156.824219 306.703125 158.296875 305.933594 159.777344 C 310.628906 155.808594 316.769531 149.535156 316.851562 149.453125 L 317.566406 150.148438 C 317.105469 150.621094 306.21875 161.742188 302.304688 163.632812 C 298.878906 165.285156 298.441406 180.066406 299.871094 183.320312 C 300.835938 185.515625 302.269531 186.527344 303.039062 186.941406 C 304.554688 177.171875 308.574219 171.183594 309.039062 170.523438 C 309.996094 169.15625 323.171875 162.089844 325.804688 160.6875 L 326.273438 161.566406 C 318.738281 165.585938 310.421875 170.289062 309.855469 171.097656 C 309.398438 171.75 305.347656 177.769531 303.9375 187.644531 C 304.160156 188.511719 306.226562 195.902344 311.425781 197.113281 C 311.824219 194.058594 313.625 181.671875 316.972656 179.867188 C 318.261719 179.175781 320.25 178.453125 322.554688 177.621094 C 326.488281 176.195312 331.386719 174.421875 334.628906 172.050781 L 335.21875 172.855469 C 331.863281 175.3125 326.890625 177.113281 322.894531 178.5625 C 320.628906 179.382812 318.671875 180.089844 317.445312 180.75 C 314.777344 182.1875 312.863281 193.519531 312.351562 197.765625 L 312.289062 198.273438 L 311.78125 198.199219 C 305.769531 197.304688 303.417969 189.589844 303.007812 188.039062 C 302.273438 187.726562 300.230469 186.625 298.953125 183.722656 C 297.925781 181.382812 297.664062 173.128906 299.050781 167.632812"/></g></g></svg>